<?xml version="1.0" standalone="no"?>
<!DOCTYPE svg PUBLIC "-//W3C//DTD SVG 20010904//EN"
 "http://www.w3.org/TR/2001/REC-SVG-20010904/DTD/svg10.dtd">
<svg version="1.0" xmlns="http://www.w3.org/2000/svg"
 width="456.000000pt" height="456.000000pt" viewBox="0 0 456.000000 456.000000"
 preserveAspectRatio="xMidYMid meet">
<metadata>
Created by potrace 1.14, written by Peter Selinger 2001-2017
</metadata>
<g transform="translate(0.000000,456.000000) scale(0.100000,-0.100000)"
fill="#000000" stroke="none">
<path d="M2258 4448 c-16 -5 -28 -16 -28 -23 0 -7 -11 -16 -25 -19 -14 -4 -25
-10 -25 -15 0 -5 -15 -13 -32 -16 -18 -4 -35 -11 -38 -14 -6 -8 -96 -51 -107
-51 -4 0 -17 -11 -28 -24 -11 -13 -37 -31 -58 -39 -20 -9 -37 -21 -37 -26 0
-6 -5 -11 -11 -11 -23 0 -119 -52 -119 -66 0 -7 -12 -17 -27 -20 -30 -7 -81
-32 -99 -49 -6 -6 -30 -19 -53 -29 -22 -11 -41 -25 -41 -32 0 -8 -16 -16 -40
-20 -22 -4 -45 -13 -51 -20 -6 -8 -18 -14 -25 -14 -8 0 -14 -4 -14 -9 0 -5
-18 -16 -40 -25 -22 -9 -40 -20 -40 -26 0 -5 -9 -10 -20 -10 -11 0 -20 -4 -20
-9 0 -5 -26 -21 -57 -37 -32 -16 -60 -32 -63 -35 -3 -3 -17 -9 -32 -13 -16 -3
-28 -11 -28 -16 0 -6 -7 -10 -15 -10 -8 0 -23 -9 -32 -20 -10 -11 -24 -20 -32
-20 -12 0 -79 -36 -91 -49 -3 -4 -17 -12 -32 -20 -16 -8 -28 -20 -28 -28 0 -7
-7 -13 -15 -13 -8 0 -30 -8 -50 -17 l-35 -17 0 -969 c0 -922 1 -969 18 -974
10 -2 22 -14 27 -25 6 -12 29 -27 54 -35 24 -8 52 -23 63 -33 11 -10 33 -20
49 -24 17 -3 29 -12 29 -21 0 -8 7 -15 16 -15 9 0 24 -8 33 -18 9 -11 28 -22
43 -26 15 -3 35 -14 45 -24 10 -10 33 -24 51 -31 17 -8 32 -17 32 -22 0 -5 7
-9 15 -9 8 0 15 -4 15 -9 0 -5 26 -17 57 -27 31 -10 63 -26 72 -36 8 -10 20
-18 26 -18 6 0 18 -9 28 -20 9 -11 23 -20 31 -20 8 0 16 -7 20 -15 3 -8 12
-15 19 -15 17 0 136 -60 154 -77 7 -6 26 -14 43 -18 16 -4 30 -11 30 -16 0 -6
25 -21 55 -35 30 -14 55 -30 55 -35 0 -5 5 -9 10 -9 6 0 20 -9 32 -20 12 -11
32 -20 45 -20 13 0 23 -4 23 -9 0 -5 16 -15 35 -21 19 -6 35 -16 35 -21 0 -5
7 -9 15 -9 8 0 20 -9 27 -20 7 -11 18 -20 25 -20 7 0 13 -4 13 -9 0 -5 17 -15
38 -21 20 -7 42 -17 47 -24 21 -22 56 -36 93 -36 43 0 102 17 102 30 0 5 18
16 40 26 22 10 42 26 46 36 3 10 13 18 23 18 9 0 26 8 37 18 10 10 35 24 54
32 19 8 41 20 48 27 7 7 22 13 33 13 11 0 22 7 25 15 4 8 10 15 15 15 6 0 19
9 30 19 12 11 41 25 66 33 25 7 49 21 54 30 5 10 16 18 24 18 7 0 20 6 27 13
18 18 63 42 131 68 31 13 57 29 57 36 0 7 7 13 15 13 8 0 15 4 15 10 0 5 18
15 40 21 22 7 40 16 40 20 0 9 82 49 99 49 6 0 11 5 11 10 0 6 7 10 15 10 8 0
15 4 15 9 0 5 20 17 44 26 25 10 47 23 50 31 3 8 12 14 20 14 8 0 21 6 28 13
7 7 25 18 41 24 15 7 27 19 27 27 0 16 21 26 56 26 13 0 32 8 42 18 10 9 39
27 65 39 26 13 47 29 47 37 0 7 9 16 20 19 20 5 20 13 20 974 l0 968 -40 17
c-22 9 -40 23 -40 31 0 9 -16 21 -35 27 -19 6 -35 15 -35 19 0 5 -29 20 -65
36 -36 15 -65 31 -65 36 0 5 -8 13 -17 16 -10 4 -24 13 -31 20 -7 7 -24 13
-38 13 -13 0 -24 3 -24 8 0 4 -28 20 -62 36 -35 16 -72 39 -83 51 -11 12 -36
28 -55 35 -19 8 -37 16 -40 19 -11 13 -67 39 -96 45 -19 4 -34 15 -37 25 -3
12 -24 25 -56 36 -28 9 -51 21 -51 26 0 5 -20 18 -45 29 -25 11 -45 25 -45 32
0 8 -34 27 -75 43 -41 17 -75 36 -75 43 0 7 -14 15 -31 19 -17 3 -33 12 -36
19 -3 8 -10 14 -15 14 -6 0 -16 7 -22 15 -6 8 -36 24 -66 34 -30 11 -56 24
-58 30 -2 6 -12 11 -22 11 -11 0 -34 14 -51 31 -18 17 -44 35 -58 39 -14 4
-33 10 -41 13 -8 3 -27 1 -42 -5z"/>
<path d="M1280 729 c-110 -46 -135 -197 -46 -278 14 -14 66 -45 113 -71 124
-65 160 -129 118 -210 -33 -64 -117 -79 -202 -36 -29 14 -64 26 -78 26 -23 0
-26 -4 -23 -27 2 -22 14 -33 53 -53 42 -21 64 -25 140 -25 80 0 95 3 137 27
76 45 108 141 74 221 -20 47 -62 85 -141 124 -92 46 -129 75 -145 113 -19 45
1 105 43 130 42 26 69 25 129 -5 67 -34 90 -33 86 2 -5 47 -47 66 -145 70 -49
2 -99 -2 -113 -8z"/>
<path d="M1849 726 c-63 -22 -107 -64 -141 -134 -30 -60 -33 -76 -37 -175 -6
-182 37 -285 143 -339 49 -26 180 -36 241 -19 136 36 208 157 208 346 0 161
-46 260 -144 309 -46 22 -65 26 -143 26 -50 -1 -107 -7 -127 -14z"/>
<path d="M3089 726 c-63 -22 -107 -64 -141 -134 -30 -60 -33 -76 -37 -175 -6
-182 37 -285 143 -339 49 -26 180 -36 241 -19 136 36 208 157 208 346 0 161
-46 260 -144 309 -46 22 -65 26 -143 26 -50 -1 -107 -7 -127 -14z"/>
<path d="M2410 394 l0 -335 43 3 42 3 5 150 5 150 118 -152 119 -153 44 0 c31
0 44 4 44 14 0 8 -44 69 -98 137 -53 68 -112 143 -130 166 l-32 41 125 145
c69 80 125 150 125 156 0 7 -19 11 -47 11 l-48 -1 -105 -129 c-58 -71 -108
-129 -112 -130 -5 0 -8 59 -8 130 l0 130 -45 0 -45 0 0 -336z"/>
</g>
</svg>
